<?xml version="1.0" encoding="UTF-8"?>
<svg width="355px" height="77px" viewBox="0 0 355 77" version="1.1" xmlns="http://www.w3.org/2000/svg" xmlns:xlink="http://www.w3.org/1999/xlink">
    <title>Group 6</title>
    <defs>
        <path d="M7.04108308,0 L7.04108308,15.9593741 C9.57996501,12.6393583 12.6958656,11.6491782 15.9271698,11.6491782 C24.0054305,11.6491782 27.582946,17.1825378 27.582946,25.6281919 L27.575794,36.4766042 C25.226456,36.730127 22.8805484,36.9951318 20.538128,37.2715616 L20.5433188,25.6864378 C20.5433188,20.4443077 17.8313313,18.2309638 14.0807102,18.2309638 C9.92617618,18.2309638 7.04108308,21.7839632 7.04108308,26.0941591 L7.03447498,38.996657 C4.68597228,39.3196251 2.34112782,39.6541006 -1.89004368e-12,40.0000251 L0.00145590327,0 L7.04108308,0 Z M197.59427,11.2414569 C202.037313,11.2414569 205.384021,12.1151453 208.673027,15.0274398 L204.749301,19.6871111 C202.729736,17.7649967 200.421661,17.1242919 197.709674,17.1242919 C194.362966,17.1242919 192.516506,18.1727179 192.516506,19.9783405 C192.516506,21.842209 194.18986,22.8906351 197.825077,23.1236186 C203.19135,23.473094 210.00017,24.6962577 210.00017,32.3264694 C210.00017,35.1956779 208.686751,37.8408072 206.070387,39.5957585 L206.07422,39.5801465 C199.027221,38.568497 191.94685,37.6605306 184.834695,36.8578381 L184.611351,36.6366653 L188.073463,31.5692728 C190.093028,33.8408625 194.709177,35.5299934 197.882779,35.5882393 C200.537065,35.6464852 203.018245,34.2485838 203.018245,32.1517317 C203.018245,30.1713714 201.402593,29.355929 197.363462,29.1229454 C191.997189,28.7152242 185.592283,26.7348639 185.592283,20.2113241 C185.592283,13.5712926 192.401102,11.2414569 197.59427,11.2414569 Z M168.519744,11.5909323 C175.21316,11.5909323 180.579433,16.6583248 180.579433,25.6864378 L180.586365,36.3912985 C178.241318,36.140906 175.892861,35.9019525 173.541052,35.6744948 L173.539806,25.7446837 C173.539806,21.3762419 171.17403,18.0562261 166.673284,18.0562261 C162.345645,18.0562261 159.40285,21.7257173 159.40285,26.0941591 L159.407943,34.449495 C157.082663,34.2712333 154.754251,34.1041942 152.422761,33.9484316 L152.420925,11.9986535 L158.710428,11.9986535 L159.172042,15.9011282 C162.057136,13.0470795 164.942229,11.5909323 168.519744,11.5909323 Z M39.6931243,12.0568994 L39.6931243,28.6345298 C39.6931243,31.372255 40.6223052,33.698201 42.4238551,35.0532288 L42.4183311,35.0321203 C39.5983823,35.2767792 36.7831464,35.5379541 33.9727202,35.8155481 C33.1239996,33.8274526 32.6534971,31.4368355 32.6534971,28.6927757 L32.6534971,12.0568994 L39.6931243,12.0568994 Z M60.8120058,12.0568994 L60.8077527,33.6757672 C57.6819805,33.8658028 54.561664,34.0761012 51.4469323,34.3065331 L51.454109,34.3296403 C52.9536908,32.8447794 53.8300805,30.6689937 53.8300805,28.2850545 L53.8300805,12.0568994 L60.8120058,12.0568994 Z M131.078448,11.3579487 C134.886771,11.3579487 138.521989,13.1635713 140.137641,16.01762 L140.368448,12.0568994 L147.119566,12.0568994 L147.124951,33.6142392 C143.843302,33.4194485 140.555659,33.2469904 137.262172,33.0970144 L137.258595,33.1122538 C142.295691,28.5306916 140.447216,17.7067508 131.713169,17.7067508 C127.039318,17.7067508 123.288697,20.9102748 123.288697,26.3853885 C123.288697,29.0448978 124.173649,31.1821725 125.619505,32.6770518 L125.623179,32.661549 C122.806059,32.578994 119.984825,32.5128809 117.15957,32.4633023 C116.567341,30.6929103 116.24907,28.6626013 116.24907,26.3853885 C116.24907,16.4835871 122.76938,11.2997028 131.078448,11.3579487 Z M81.1158485,11.5326864 C84.5202584,11.5326864 87.9246682,12.9305878 89.5403204,16.8913083 C92.0792023,12.814096 95.3682084,11.6491782 99.0611276,11.6491782 C107.139388,11.6491782 111.120817,16.6583248 111.120817,25.2787166 L111.12627,32.3826509 C108.912727,32.3623084 106.696765,32.3521151 104.478428,32.3521151 L104.081,32.355 L104.08119,25.2787166 C104.08119,21.4927337 102.523239,18.2892097 98.7149164,18.2892097 C94.9065935,18.2892097 92.5408172,21.6092255 92.5408172,25.3952084 L92.5405705,32.4506419 C90.189633,32.4894739 87.8414732,32.5397546 85.4961442,32.6014306 L85.50119,25.3952084 C85.50119,21.6092255 83.5393267,18.1727179 79.673302,18.1727179 C75.8649791,18.1727179 73.6146064,21.6092255 73.6146064,25.3952084 L73.608949,33.0124052 C71.2596697,33.1130998 68.9133453,33.2252325 66.5700298,33.3487494 L66.5749793,11.9986535 L73.0952897,11.9986535 L73.6146064,15.4934069 C75.1148549,12.5811124 78.403861,11.5326864 81.1158485,11.5326864 Z" id="path-1"></path>
    </defs>
    <g id="Page-1" stroke="none" stroke-width="1" fill="none" fill-rule="evenodd">
        <g id="Humans-NFT-Marketplace-logo-black" transform="translate(-85.000000, -66.000000)">
            <g id="Group-6" transform="translate(85.000000, 67.000000)">
                <g id="Bitmap-Copy-3" transform="translate(0.000000, 16.000000)">
                    <mask id="mask-2" fill="white">
                        <use xlink:href="#path-1"></use>
                    </mask>
                    <use id="Mask" fill="#000000" xlink:href="#path-1"></use>
                </g>
                <line x1="233.50017" y1="74.6681416" x2="233.50017" y2="0.331858407" id="Line-Copy" stroke="#000000" opacity="0.343308222" stroke-linecap="square"></line>
                <g id="Group-2" transform="translate(257.000170, 8.000000)" fill="#000000">
                    <text id="NFT" font-family="MonumentExtended-Light, Monument Extended" font-size="36" font-weight="300" letter-spacing="-1.30846163">
                        <tspan x="0.465384875" y="41">NFT</tspan>
                    </text>
                    <text id="MARKETPLACE" opacity="0.400000006" font-family="MonumentExtended-Regular, Monument Extended" font-size="9" font-weight="normal" letter-spacing="0.45">
                        <tspan x="1.74983" y="52">MARKETPLACE</tspan>
                    </text>
                </g>
            </g>
        </g>
    </g>
</svg>